# xmcd
#
# Track frame offsets: 
#        150
#        8432
#        17535
#
# Disc length: 369 seconds
#
# Revision: 3
# Processed by: cddbd v1.5.2PL0 Copyright (c) Steve Scherf et al.
# Submitted via: ExactAudioCopy v1.0b3
#
DISCID=0e016f03
DTITLE=The White Stripes - Fell in Love with a Girl
DYEAR=2002
DGENRE=Blues
TTITLE0=Fell in Love with a Girl
TTITLE1=Let's Shake Hands
TTITLE2=Lafayette Blues
EXTD=YEAR: 2002
EXTT0=
EXTT1=
EXTT2=
PLAYORDER=
